<svg width="288" height="255" viewBox="0 0 288 255" fill="none" xmlns="http://www.w3.org/2000/svg">
<path fill-rule="evenodd" clip-rule="evenodd" d="M138.738 4.55772C134.289 6.13721 131.032 9.25683 125.967 16.7898C107.699 43.954 111.666 80.9964 135.243 103.42L138.12 106.156L136.154 108.07C132.488 111.639 129.884 116.169 128.477 121.429C127.419 125.383 127.404 132.084 128.443 135.961C129.861 141.25 133.486 147.166 137.296 150.408L139.207 152.035L135.832 157.835C133.976 161.025 132.336 163.633 132.188 163.631C132.04 163.63 130.546 163.233 128.867 162.75C124.568 161.513 117.467 161.483 113.246 162.685C104.428 165.194 96.9202 171.94 93.7055 180.243C93.1073 181.787 92.5097 183.726 92.3772 184.552C92.1021 186.266 92.5693 186.245 87.2072 184.783C80.0958 182.843 71.2004 182.063 63.8758 182.736C44.1883 184.545 26.6367 194.255 14.9008 209.829C10.3717 215.841 5.86678 224.841 4.37578 230.859C2.78387 237.285 6.38963 244.943 12.5468 248.211C15.6165 249.841 20.5613 250.691 28.4972 250.953C38.8408 251.294 47.3685 249.804 56.4628 246.066C72.4261 239.505 84.8561 227.795 92.2199 212.38C94.3368 207.949 96.4803 201.853 97.2553 198.061C97.4865 196.929 97.7347 196.004 97.8072 196.004C97.8794 196.004 99.2817 196.325 100.924 196.717C105.013 197.693 111.191 197.696 115.074 196.723C116.636 196.331 119.369 195.293 121.146 194.416C129.644 190.223 134.843 183.18 136.937 173.023L137.14 172.04H143.956H150.772L150.775 173.202C150.781 175.084 153.038 181.062 154.818 183.906C158.769 190.22 165.145 194.846 172.466 196.711C176.337 197.697 182.5 197.7 186.616 196.717C188.258 196.325 189.727 196.004 189.88 196.004C190.034 196.004 190.363 196.929 190.612 198.061C191.461 201.916 193.58 207.979 195.456 211.92C204.937 231.844 222.398 245.262 244.678 249.745C248.073 250.429 249.788 250.541 256.888 250.545C269.951 250.552 274.901 249.34 279.166 245.092C282.185 242.086 284 237.72 284 233.467C284 231.669 282.026 225.754 279.961 221.364C273.293 207.185 262.168 195.984 247.811 188.993C237.426 183.935 225.2 181.593 213.506 182.42C208.079 182.804 205.817 183.174 200.508 184.544C198.336 185.105 196.343 185.62 196.081 185.687C195.758 185.771 195.386 184.973 194.93 183.215C192.622 174.331 185.571 166.681 176.741 163.478C170.002 161.033 164.202 161.082 155.8 163.655C155.414 163.773 154.308 162.148 151.903 157.93L148.544 152.04L150.764 149.994C154.629 146.429 157.883 141.086 159.228 136.094C160.146 132.689 160.316 126.597 159.593 123.042C158.436 117.355 155.778 112.296 151.895 108.389L149.515 105.994L152.756 102.803C171.012 84.8195 177.499 58.0584 169.564 33.4566C165.7 21.4724 156.724 8.1788 150.541 5.2813C148.334 4.24726 147.689 4.11707 144.308 4.023C141.394 3.94217 140.129 4.06378 138.738 4.55772ZM147.62 11.3861C150.256 12.5592 156.641 21.0325 159.882 27.6566C164.919 37.9533 167.042 49.7519 165.831 60.7281C164.168 75.7972 156.848 90.2547 146.03 99.8304L143.564 102.013L139.358 97.772C137.044 95.4392 134.062 92.0016 132.732 90.1328C127.913 83.3656 124.271 74.9553 122.348 66.1537C121.636 62.896 121.53 61.3977 121.53 54.5443C121.53 47.7067 121.637 46.1833 122.345 42.9199C124.664 32.2341 129.291 22.7003 135.992 14.8072C139.546 10.6196 143.371 9.49432 147.62 11.3861ZM145.999 112.139C148.395 114.226 150.981 118.117 152.13 121.366C153.461 125.127 153.651 130.457 152.591 134.305C151.46 138.41 149.901 141.067 146.744 144.273L143.972 147.088L142.151 145.57C137.038 141.306 133.825 133.637 134.386 127.032C134.668 123.711 136.218 119.155 137.952 116.553C139.244 114.615 143.239 110.52 143.839 110.52C144.005 110.52 144.977 111.248 145.999 112.139ZM146.237 161.667L148.232 165.065L144.068 165.166C141.777 165.222 139.833 165.197 139.746 165.111C139.659 165.025 140.523 163.331 141.664 161.347C142.806 159.363 143.853 157.858 143.991 158.004C144.129 158.15 145.14 159.799 146.237 161.667ZM127.92 169.552L130.383 170.378L130.167 171.951C129.578 176.228 126.591 181.896 123.421 184.748C117.408 190.159 109.175 192.131 101.809 189.927C100.259 189.463 98.9054 188.862 98.8009 188.591C98.4489 187.677 99.5334 183.751 100.936 180.863C102.031 178.607 102.961 177.371 105.274 175.092C108.574 171.842 111.268 170.248 115.293 169.165C118.862 168.204 124.407 168.374 127.92 169.552ZM172.105 169.17C179.599 171.079 185.651 176.695 187.919 183.847C189.211 187.92 189.158 188.604 187.491 189.319C181.349 191.953 173.322 191.094 167.383 187.167C162.21 183.747 158.288 177.776 157.417 171.996L157.173 170.371L159.628 169.62C163.059 168.57 163.177 168.551 166.426 168.505C168.271 168.478 170.343 168.721 172.105 169.17ZM227.621 189.705C238.461 191.496 248.006 195.704 256.492 202.432C265.392 209.489 271.741 218.319 275.914 229.446C277.01 232.366 277.219 233.33 277.057 234.697C276.679 237.872 274.447 240.938 271.615 242.172C267.258 244.07 254.704 244.624 246.948 243.26C223.38 239.115 204.621 222.335 198.025 199.496C197.529 197.777 197.017 195.578 196.888 194.608L196.653 192.845L200.017 191.778C203.885 190.551 207.962 189.682 212.032 189.218C215.665 188.804 223.684 189.054 227.621 189.705ZM79.8491 190.079C84.3013 190.869 90.8277 192.794 91.055 193.383C91.3038 194.029 89.9048 199.722 88.5707 203.491C83.2962 218.395 72.7073 230.402 58.4648 237.629C53.5742 240.11 47.6989 242.165 42.3227 243.273C35.3198 244.717 22.7547 244.479 17.1157 242.796C14.9202 242.141 12.3386 239.626 11.4598 237.287C10.4378 234.565 10.5247 233.338 12.0233 229.341C20.0536 207.928 38.746 192.989 61.5739 189.74C66.0179 189.107 75.351 189.28 79.8491 190.079Z" fill="black"/>
</svg>
