<svg width="75" height="75" viewBox="0 0 75 75" fill="none" xmlns="http://www.w3.org/2000/svg">
    <path fill-rule="evenodd" clip-rule="evenodd" d="M37.5 75C58.2107 75 75 58.2107 75 37.5C75 16.7893 58.2107 0 37.5 0C16.7893 0 0 16.7893 0 37.5C0 58.2107 16.7893 75 37.5 75ZM56.9817 19.1182C62.5042 19.0529 67.0339 23.4768 67.0993 28.9993L67.2987 45.8638C67.364 51.3863 62.9401 55.9161 57.4176 55.9814L17.4352 56.4542C11.9128 56.5195 7.38299 52.0956 7.31769 46.5732L7.11825 29.7086C7.05294 24.1862 11.4768 19.6564 16.9993 19.5911L56.9817 19.1182ZM62.0938 29.2189C63.3124 28.5699 63.7741 27.0558 63.125 25.8371C62.476 24.6185 60.9619 24.1568 59.7433 24.8059L42.8098 33.8251L42.5748 33.9503C39.6812 35.4915 36.2159 35.5165 33.3004 34.0171L32.8945 33.8084L26.6702 30.6075L16.445 25.3491C15.2171 24.7176 13.7098 25.2011 13.0784 26.429C12.447 27.6569 12.9305 29.1641 14.1583 29.7956L24.3836 35.054C26.0372 35.9044 26.4225 38.0982 25.1576 39.4612L22.3682 42.4669C21.4289 43.4789 21.488 45.0607 22.5 46C23.512 46.9392 25.0938 46.8802 26.0331 45.8681L28.8602 42.8219C30.8904 40.6342 34.1287 40.0655 36.7829 41.4304L36.8321 41.4557C37.561 41.8306 38.4273 41.8243 39.1507 41.439C41.626 40.1206 44.685 40.7002 46.5065 42.8326L48.9753 45.7228C49.8721 46.7727 51.4502 46.8967 52.5 46C53.5498 45.1032 53.6739 43.5252 52.7772 42.4753L51.5088 40.9905C49.66 38.8261 50.2889 35.5065 52.8013 34.1684L62.0938 29.2189Z" fill="#a2ac3a"/>
</svg>