<svg width="76" height="75" viewBox="0 0 76 75" fill="none" xmlns="http://www.w3.org/2000/svg">
    <path fill-rule="evenodd" clip-rule="evenodd" d="M38 0C58.9874 0 76 17.2122 76 38.4484C76 55.4322 65.1244 69.8398 50.0346 74.9285C48.108 75.3073 47.424 74.1066 47.424 73.0828C47.424 71.8153 47.4696 67.6754 47.4696 62.5304C47.4696 58.9454 46.2536 56.6056 44.8894 55.4131C53.352 54.4606 62.244 51.2091 62.244 36.4416C62.244 32.2416 60.7696 28.8143 58.33 26.1218C58.7252 25.1505 60.0286 21.2398 57.9576 15.9448C57.9576 15.9448 54.7732 14.9146 47.519 19.8871C44.4828 19.0358 41.23 18.6075 38 18.5925C34.77 18.6075 31.521 19.0358 28.4886 19.8871C21.2268 14.9146 18.0348 15.9448 18.0348 15.9448C15.9714 21.2398 17.2748 25.1505 17.6662 26.1218C15.238 28.8143 13.7522 32.2416 13.7522 36.4416C13.7522 51.1716 22.6252 54.473 31.065 55.4443C29.9782 56.4043 28.994 58.0978 28.652 60.584C26.486 61.5665 20.9836 63.2669 17.594 57.3907C17.594 57.3907 15.5838 53.6965 11.7686 53.4265C11.7686 53.4265 8.0636 53.3779 11.5102 55.7629C11.5102 55.7629 13.9992 56.9441 15.7282 61.3879C15.7282 61.3879 17.9588 68.2502 28.5304 65.9252C28.5494 69.139 28.5836 72.1678 28.5836 73.0828C28.5836 74.0991 27.8844 75.2884 25.9882 74.9322C10.887 69.8509 0 55.4359 0 38.4484C0 17.2122 17.0164 0 38 0Z" fill="#a2ac3a"/>
</svg>