<svg width="76" height="75" viewBox="0 0 76 75" fill="none" xmlns="http://www.w3.org/2000/svg">
    <path d="M53.5356 22.4477C53.5507 22.4477 53.5709 22.4477 53.5911 22.4477C54.1185 22.4477 54.608 22.6096 55.0092 22.8884L55.0016 22.8835C55.2943 23.135 55.4911 23.4885 55.539 23.887V23.8944C55.5895 24.1982 55.6173 24.5468 55.6173 24.9029C55.6173 25.0647 55.6122 25.2241 55.5996 25.3835V25.3611C55.0319 31.26 52.5692 45.5652 51.3177 52.1688C50.7878 54.9651 49.7457 55.9014 48.7364 55.991C46.5437 56.1927 44.8784 54.5618 42.7538 53.1873C39.4282 51.0334 37.5483 49.6937 34.3211 47.5946C30.5892 45.1718 33.009 43.8347 35.1336 41.6584C35.6912 41.0857 45.3578 32.4079 45.547 31.621C45.5571 31.5737 45.5621 31.5214 45.5621 31.4666C45.5621 31.2724 45.489 31.0956 45.3704 30.9612C45.2392 30.8765 45.0752 30.8292 44.9036 30.8292C44.79 30.8292 44.6815 30.8516 44.5806 30.8889L44.5857 30.8865C44.2526 30.9612 38.9403 34.4256 28.6489 41.2799C27.526 42.1539 26.108 42.7067 24.5637 42.7714H24.5486C22.361 42.51 20.3752 42.0294 18.4903 41.3446L18.677 41.4044C16.3102 40.6424 14.4304 40.2415 14.5919 38.9517C14.6777 38.281 15.6147 37.5946 17.4028 36.8924C28.4176 32.1564 35.7627 29.0347 39.4382 27.5274C43.4931 25.4034 48.1939 23.6554 53.1369 22.5224L53.5331 22.4452L53.5356 22.4477ZM37.9117 0C16.9637 0.0498008 0 16.8202 0 37.5C0 58.2097 17.0117 75 38 75C58.9883 75 76 58.2122 76 37.5C76 16.8202 59.0363 0.0498008 38.0934 0L38.0883 0C38.0294 0 37.9706 0 37.9117 0Z" fill="#a2ac3a"/>
</svg>